<svg width="21" height="27" viewBox="0 0 21 27" fill="none" xmlns="http://www.w3.org/2000/svg">
<path d="M4.07333 8.03509C3.94864 9.36509 3.86114 11.7188 4.64645 12.7207C4.64645 12.7207 4.27676 10.1351 7.59083 6.89103C8.9252 5.58509 9.23364 3.80884 8.7677 2.47666C8.50301 1.72197 8.01958 1.09853 7.59958 0.663218C7.35458 0.40728 7.5427 -0.0149073 7.89926 0.000405249C10.0561 0.0966553 13.5518 0.69603 15.0371 4.42353C15.6889 6.05978 15.7371 7.75072 15.4264 9.47009C15.2296 10.5682 14.5296 13.0095 16.1265 13.3092C17.2661 13.5235 17.8174 12.6179 18.0646 11.966C18.1674 11.6948 18.5239 11.627 18.7164 11.8435C20.6414 14.0332 20.8055 16.6123 20.4074 18.8326C19.6374 23.1245 15.2908 26.2482 10.9727 26.2482C5.57833 26.2482 1.28426 23.1617 0.170825 17.5748C-0.277612 15.3195 -0.0501117 10.857 3.42801 7.70697C3.68614 7.47072 4.10833 7.68072 4.07333 8.03509V8.03509Z" fill="url(#paint0_radial_1_5)"/>
<path d="M12.7488 13.8768C10.7604 11.3174 11.6507 8.39709 12.1385 7.23334C12.2041 7.08022 12.0291 6.93584 11.8913 7.02991C11.036 7.61178 9.28382 8.98116 8.46788 10.9083C7.3632 13.5137 7.44195 14.789 8.09601 16.3465C8.48976 17.2849 8.03257 17.484 7.80288 17.519C7.57976 17.554 7.37413 17.4052 7.21007 17.2499C6.73809 16.7968 6.40176 16.2211 6.23882 15.5874C6.20382 15.4518 6.02663 15.4146 5.9457 15.5262C5.3332 16.3727 5.01601 17.7312 5.0007 18.6915C4.95257 21.6599 7.40476 24.0662 10.371 24.0662C14.1094 24.0662 16.8329 19.9318 14.6848 16.4755C14.0613 15.4693 13.4751 14.8108 12.7488 13.8768Z" fill="url(#paint1_radial_1_5)"/>
<defs>
<radialGradient id="paint0_radial_1_5" cx="0" cy="0" r="1" gradientUnits="userSpaceOnUse" gradientTransform="translate(9.90427 26.3162) rotate(-179.751) scale(15.4411 25.3357)">
<stop offset="0.314" stop-color="#FF9800"/>
<stop offset="0.662" stop-color="#FF6D00"/>
<stop offset="0.972" stop-color="#F44336"/>
</radialGradient>
<radialGradient id="paint1_radial_1_5" cx="0" cy="0" r="1" gradientUnits="userSpaceOnUse" gradientTransform="translate(10.5766 8.76643) rotate(90.5787) scale(16.1561 12.1587)">
<stop offset="0.214" stop-color="#FFF176"/>
<stop offset="0.328" stop-color="#FFF27D"/>
<stop offset="0.487" stop-color="#FFF48F"/>
<stop offset="0.672" stop-color="#FFF7AD"/>
<stop offset="0.793" stop-color="#FFF9C4"/>
<stop offset="0.822" stop-color="#FFF8BD" stop-opacity="0.804"/>
<stop offset="0.863" stop-color="#FFF6AB" stop-opacity="0.529"/>
<stop offset="0.91" stop-color="#FFF38D" stop-opacity="0.209"/>
<stop offset="0.941" stop-color="#FFF176" stop-opacity="0"/>
</radialGradient>
</defs>
</svg>
