<svg width="27" height="27" viewBox="0 0 27 27" fill="none" xmlns="http://www.w3.org/2000/svg">
<path d="M7.10016 7.02011L4.00704 5.03824C3.94468 5.00002 3.89179 4.94816 3.85235 4.88657C3.81291 4.82498 3.78793 4.75526 3.7793 4.68263C3.77067 4.61 3.77861 4.53636 3.80252 4.46724C3.82643 4.39812 3.86569 4.33532 3.91735 4.28355L5.07891 3.12199C5.30204 2.89886 5.67829 2.94699 5.83798 3.22042L7.77172 6.36386C8.02547 6.79699 7.52891 7.28261 7.10016 7.02011ZM4.39641 16.5532L0.804538 16.6254C0.731502 16.627 0.659774 16.6451 0.594743 16.6784C0.529711 16.7117 0.473068 16.7593 0.429068 16.8176C0.385068 16.8759 0.354857 16.9434 0.340703 17.0151C0.32655 17.0868 0.328822 17.1607 0.34735 17.2314L0.765163 18.8195C0.8461 19.1257 1.19391 19.2723 1.46954 19.1192L4.6436 17.4589C5.0811 17.2117 4.89954 16.5423 4.39641 16.5532ZM12.7395 22.6542L11.952 26.152C11.8799 26.456 12.1095 26.7492 12.4224 26.7492H14.0652C14.3824 26.7492 14.612 26.4495 14.5333 26.1432L13.678 22.6454C13.5511 22.1576 12.8577 22.1642 12.7395 22.6542V22.6542ZM19.1489 7.02011L22.242 5.03824C22.5089 4.87417 22.5527 4.50449 22.3317 4.28355L21.1702 3.12199C21.1178 3.06984 21.0542 3.03038 20.9842 3.00663C20.9142 2.98288 20.8398 2.97548 20.7665 2.98498C20.6932 2.99448 20.6231 3.02064 20.5615 3.06146C20.4999 3.10227 20.4484 3.15665 20.4111 3.22042L18.4774 6.36386C18.2236 6.79699 18.7202 7.28261 19.1489 7.02011V7.02011ZM21.8527 16.5532L25.4445 16.6254C25.5176 16.627 25.5893 16.6451 25.6543 16.6784C25.7194 16.7117 25.776 16.7593 25.82 16.8176C25.864 16.8759 25.8942 16.9434 25.9084 17.0151C25.9225 17.0868 25.9203 17.1607 25.9017 17.2314L25.4839 18.8195C25.465 18.8909 25.43 18.957 25.3817 19.0128C25.3334 19.0686 25.2729 19.1126 25.205 19.1415C25.1371 19.1704 25.0634 19.1834 24.9897 19.1796C24.9159 19.1757 24.8441 19.155 24.7795 19.1192L21.6055 17.4589C21.168 17.2117 21.3495 16.5423 21.8527 16.5532Z" fill="#FFC107"/>
<path d="M14.0106 0.549336L16.955 7.26496C17.0657 7.5177 17.2423 7.73608 17.4662 7.8973C17.6902 8.05852 17.9533 8.15668 18.2281 8.18152L25.4009 8.82465C26.2125 8.94277 26.5362 9.93809 25.9478 10.5112L20.5446 15.0503C20.1071 15.4178 19.9081 15.9953 20.0284 16.5531L21.599 23.9053C21.7368 24.7125 20.8903 25.3293 20.164 24.9465L13.9034 21.2803C13.6673 21.1417 13.3984 21.0686 13.1246 21.0686C12.8509 21.0686 12.582 21.1417 12.3459 21.2803L6.08527 24.9443C5.36121 25.325 4.51246 24.7103 4.65027 23.9031L6.2209 16.5509C6.33902 15.9931 6.14215 15.4156 5.70465 15.0481L0.299334 10.5134C-0.286916 9.94246 0.0368341 8.94496 0.846209 8.82684L8.01902 8.18371C8.29384 8.15887 8.55695 8.06071 8.78089 7.89949C9.00484 7.73826 9.1814 7.51989 9.29215 7.26715L12.2365 0.551524C12.6018 -0.183476 13.6475 -0.183476 14.0106 0.549336V0.549336Z" fill="#FDD835"/>
<path d="M13.5123 6.69625L13.0135 1.74813C12.9938 1.4725 12.937 1 13.3788 1C13.7288 1 13.9192 1.72844 13.9192 1.72844L15.4154 5.70094C15.9798 7.2125 15.7479 7.73094 15.2032 8.03719C14.5776 8.38719 13.6545 8.11375 13.5123 6.69625V6.69625Z" fill="#FFFF8D"/>
<path d="M20.0096 14.2197L24.3014 10.8706C24.5136 10.6934 24.8964 10.4112 24.5902 10.0897C24.3474 9.83594 23.6911 10.2012 23.6911 10.2012L19.9352 11.6691C18.8152 12.0562 18.0714 12.6294 18.0058 13.3512C17.9205 14.3137 18.7846 15.0553 20.0096 14.2197Z" fill="#F4B400"/>
</svg>
